<?xml version="1.0" encoding="UTF-8" standalone="no"?>
<svg
   version="1.1"
   id="svg2"
   width="627.34668"
   height="84.080002"
   viewBox="0 0 627.34668 84.080002"
   xmlns="http://www.w3.org/2000/svg">
  <defs
     id="defs6" />
  <g
     id="g8"
     transform="matrix(1.3333333,0,0,-1.3333333,0,84.08)">
    <g
       id="g10"
       transform="scale(0.1)">
      <path
         d="M 2676.83,185.313 V 297.75 h 60 c 45.41,0 80.01,-13.516 80.01,-55.68 0,-49.73 -43.79,-56.757 -99.47,-56.757 z m 0,171.359 v 95.68 h 47.03 c 44.33,0 75.14,-6.485 75.14,-45.946 0,-36.761 -22.71,-47.57 -65.41,-49.734 z m -55.14,-230.824 h 108.12 c 72.43,0 155.68,16.757 155.68,110.816 0,58.926 -43.25,87.031 -76.22,96.766 29.73,9.726 58.38,37.84 58.38,83.246 0,75.679 -56.22,95.679 -166.49,95.679 h -79.47 c -8.11,0 -12.43,-4.324 -12.43,-12.433 V 138.281 c 0,-8.109 4.32,-12.433 12.43,-12.433"
         style="fill:#ffffff;fill-opacity:1;fill-rule:nonzero;stroke:none"
         id="path12" />
      <path
         d="m 2937.76,125.848 h 41.08 c 8.11,0 12.44,4.324 12.44,12.433 V 259.91 c 0,58.383 11.89,95.141 54.05,95.141 8.65,0 12.98,-1.621 17.3,-1.621 6.49,0 9.19,4.863 9.19,11.351 v 38.922 c 0,9.731 -6.49,12.973 -16.76,12.973 -32.43,0 -58.92,-16.219 -68.65,-44.867 0.54,5.945 0.54,12.433 0.54,18.918 v 6.488 c 0,8.109 -4.32,12.433 -12.43,12.433 h -37.3 c -8.11,0 -11.89,-4.324 -11.89,-12.433 V 138.281 c 0,-8.109 4.32,-12.433 12.43,-12.433"
         style="fill:#ffffff;fill-opacity:1;fill-rule:nonzero;stroke:none"
         id="path14" />
      <path
         d="m 3193.75,167.473 c -29.73,0 -49.19,12.972 -49.19,38.922 0,30.269 32.98,40.543 104.87,48.652 l 14.6,1.621 c -0.54,-5.406 -0.54,-11.352 -0.54,-11.895 0,-48.109 -22.17,-77.3 -69.74,-77.3 z m -18.38,-47.032 c 45.95,0 78.39,20.004 94.06,43.247 0,-10.27 0.54,-19.461 1.62,-26.489 0.55,-7.566 5.41,-11.351 12.98,-11.351 h 35.68 c 7.56,0 11.89,2.164 11.89,8.109 0,2.703 -1.08,7.027 -1.62,10.813 -2.17,18.918 -3.25,37.839 -3.25,69.191 v 79.465 c 0,96.762 -48.11,125.414 -117.3,125.414 -64.33,0 -105.41,-31.895 -117.84,-75.141 -1.09,-3.785 -2.71,-9.73 -2.71,-13.515 0,-5.946 3.25,-9.188 11.9,-9.188 h 38.38 c 7.56,0 11.35,3.781 13.51,11.352 5.95,21.082 23.24,35.136 55.14,35.136 37.3,0 54.06,-17.839 55.14,-64.871 -3.25,-0.539 -41.09,-3.781 -64.87,-7.566 -60.55,-8.649 -123.79,-30.813 -123.79,-90.274 0,-53.515 42.16,-84.332 101.08,-84.332"
         style="fill:#ffffff;fill-opacity:1;fill-rule:nonzero;stroke:none"
         id="path16" />
      <path
         d="m 3391.32,125.848 h 41.08 c 8.11,0 12.44,4.324 12.44,12.433 v 258.934 c 0,8.109 -4.33,12.433 -12.44,12.433 h -41.08 c -8.11,0 -12.43,-4.324 -12.43,-12.433 V 138.281 c 0,-8.109 4.32,-12.433 12.43,-12.433 z m -1.08,324.882 h 42.7 c 8.11,0 12.44,4.325 12.44,12.434 v 36.758 c 0,8.109 -4.33,12.433 -12.44,12.433 h -42.7 c -8.11,0 -12.44,-4.324 -12.44,-12.433 v -36.758 c 0,-8.109 4.33,-12.434 12.44,-12.434"
         style="fill:#ffffff;fill-opacity:1;fill-rule:nonzero;stroke:none"
         id="path18" />
      <path
         d="m 3512.25,125.848 h 41.09 c 8.11,0 12.43,4.324 12.43,12.433 v 145.953 c 0,44.329 19.46,79.465 64.33,79.465 44.33,0 57.84,-35.676 57.84,-91.355 V 138.281 c 0,-8.109 4.32,-12.433 12.43,-12.433 h 41.09 c 8.1,0 12.43,4.324 12.43,12.433 v 163.793 c 0,72.977 -37.84,116.766 -102.71,116.766 -43.79,0 -71.35,-18.922 -88.65,-44.871 -0.54,0 -0.54,0 -0.54,0.543 0,5.945 0.54,11.89 0.54,17.84 v 4.863 c 0,8.109 -4.33,12.433 -12.44,12.433 h -38.38 c -8.1,0 -12.43,-4.324 -11.89,-12.433 V 138.281 c 0,-8.109 4.33,-12.433 12.43,-12.433"
         style="fill:#ffffff;fill-opacity:1;fill-rule:nonzero;stroke:none"
         id="path20" />
      <path
         d="m 3910.37,120.441 c 15.13,0 24.86,0.543 24.86,14.055 v 25.41 c 0,9.731 -3.78,12.973 -10.81,12.973 -3.78,0 -5.4,-0.539 -10.81,-0.539 -19.46,0 -27.57,8.648 -27.57,35.137 v 152.98 h 40.54 c 8.11,0 12.44,4.324 12.44,12.434 v 24.324 c 0,8.109 -4.33,12.433 -12.44,12.433 h -40.54 v 64.329 c 0,8.109 -4.32,12.433 -12.43,12.433 h -41.09 c -8.1,0 -12.43,-4.324 -12.43,-12.433 v -64.329 h -30.27 c -8.11,0 -12.43,-4.324 -12.43,-12.433 v -24.324 c 0,-8.11 4.32,-12.434 12.43,-12.434 h 30.27 V 197.203 c 0,-59.461 32.98,-76.762 90.28,-76.762"
         style="fill:#ffffff;fill-opacity:1;fill-rule:nonzero;stroke:none"
         id="path22" />
      <path
         d="m 3982.71,125.848 h 41.08 c 8.11,0 12.43,4.324 12.43,12.433 V 259.91 c 0,58.383 11.9,95.141 54.06,95.141 8.65,0 12.97,-1.621 17.3,-1.621 6.48,0 9.19,4.863 9.19,11.351 v 38.922 c 0,9.731 -6.49,12.973 -16.76,12.973 -32.43,0 -58.92,-16.219 -68.65,-44.867 0.54,5.945 0.54,12.433 0.54,18.918 v 6.488 c 0,8.109 -4.33,12.433 -12.44,12.433 h -37.29 c -8.11,0 -11.9,-4.324 -11.9,-12.433 V 138.281 c 0,-8.109 4.33,-12.433 12.44,-12.433"
         style="fill:#ffffff;fill-opacity:1;fill-rule:nonzero;stroke:none"
         id="path24" />
      <path
         d="m 4188.99,298.832 c 5.41,44.867 35.14,69.191 76.22,69.191 42.17,0 69.2,-30.269 73.52,-69.191 z m 77.84,-181.633 c 63.25,0 105.96,32.434 125.42,71.356 3.78,7.566 3.78,9.191 3.78,10.812 0,4.324 -4.86,7.567 -11.89,7.567 h -41.09 c -6.48,0 -10.81,-2.704 -15.13,-8.11 -12.43,-16.758 -31.89,-27.027 -59.46,-27.027 -45.95,0 -77.31,33.516 -81.63,80.004 l 204.88,-0.539 c 7.56,0 12.97,4.324 12.97,12.433 v 5.407 c 0,82.707 -48.11,150.277 -138.93,150.277 -86.49,0 -144.87,-64.328 -144.87,-150.82 0,-88.653 57.3,-151.36 145.95,-151.36"
         style="fill:#ffffff;fill-opacity:1;fill-rule:nonzero;stroke:none"
         id="path26" />
      <path
         d="m 4489.41,298.832 c 5.41,44.867 35.14,69.191 76.22,69.191 42.17,0 69.2,-30.269 73.52,-69.191 z m 77.85,-181.633 c 63.24,0 105.95,32.434 125.41,71.356 3.78,7.566 3.78,9.191 3.78,10.812 0,4.324 -4.86,7.567 -11.89,7.567 h -41.08 c -6.49,0 -10.82,-2.704 -15.14,-8.11 -12.43,-16.758 -31.89,-27.027 -59.46,-27.027 -45.95,0 -77.3,33.516 -81.63,80.004 l 204.88,-0.539 c 7.57,0 12.97,4.324 12.97,12.433 v 5.407 c 0,82.707 -48.11,150.277 -138.93,150.277 -86.49,0 -144.87,-64.328 -144.87,-150.82 0,-88.653 57.3,-151.36 145.96,-151.36"
         style="fill:#ffffff;fill-opacity:1;fill-rule:nonzero;stroke:none"
         id="path28" />
      <path
         d="m 882.461,249.891 c 72.609,0 134.219,52.968 145.479,124.742 11.35,72.394 -45.194,135.512 -125.335,135.656 H 773.469 c -4.965,0 -9.199,-3.609 -9.985,-8.527 L 705.859,136.324 c -0.898,-5.687 3.496,-10.816 9.235,-10.816 h 68.34 c 4.984,0 9.214,3.625 9.984,8.543 l 16.926,107.312 c 0.785,4.903 5.015,8.528 10,8.528 z m 57.184,127.976 c -4.215,-26.762 -24.899,-46.48 -64.489,-46.48 h -50.597 l 15.339,97.328 h 49.719 c 40.93,0 54.242,-24.149 50.028,-50.848"
         style="fill:#ffffff;fill-opacity:1;fill-rule:nonzero;stroke:none"
         id="path30" />
      <path
         d="m 1324.03,395.117 h -64.86 c -4.98,0 -9.21,-3.629 -10,-8.527 l -2.12,-13.465 c 0,0 -50.36,55.012 -139.52,17.859 -51.12,-21.304 -75.67,-65.355 -86.11,-97.476 0,0 -33.186,-97.981 41.82,-151.797 0,0 69.52,-51.8243 147.83,3.184 l -1.36,-8.579 c -0.89,-5.668 3.5,-10.796 9.24,-10.796 h 64.88 c 4.96,0 9.19,3.609 9.98,8.527 l 39.46,250.254 c 0.89,5.687 -3.48,10.816 -9.24,10.816 m -95.31,-138.304 c -5.67,-35.895 -35.1,-62.329 -72.86,-62.329 -7.43,0 -14.26,1.012 -20.37,2.989 v -0.016 c -27.99,9.004 -43.95,35.879 -39.36,65.027 5.67,35.895 35.19,62.329 72.94,62.329 7.45,0 14.26,-1.012 20.37,-2.989 v 0.016 c 27.99,-9 43.87,-35.879 39.28,-65.027"
         style="fill:#ffffff;fill-opacity:1;fill-rule:nonzero;stroke:none"
         id="path32" />
      <path
         d="m 1816.71,249.891 c 72.61,0 134.22,52.968 145.48,124.742 11.35,72.394 -45.2,135.512 -125.34,135.656 h -129.13 c -4.97,0 -9.2,-3.609 -9.99,-8.527 l -57.62,-365.438 c -0.9,-5.687 3.49,-10.816 9.23,-10.816 h 68.34 c 4.99,0 9.22,3.625 9.99,8.543 l 16.92,107.312 c 0.79,4.903 5.02,8.528 10,8.528 z m 57.18,127.976 c -4.21,-26.762 -24.9,-46.48 -64.48,-46.48 h -50.6 l 15.34,97.328 h 49.72 c 40.92,0 54.24,-24.149 50.02,-50.848"
         style="fill:#ffffff;fill-opacity:1;fill-rule:nonzero;stroke:none"
         id="path34" />
      <path
         d="m 2258.28,395.117 h -64.86 c -4.99,0 -9.22,-3.629 -10,-8.527 l -2.13,-13.465 c 0,0 -50.35,55.012 -139.51,17.859 -51.12,-21.304 -75.68,-65.355 -86.12,-97.476 0,0 -33.18,-97.981 41.83,-151.797 0,0 69.52,-51.8243 147.83,3.184 l -1.36,-8.579 c -0.9,-5.668 3.48,-10.796 9.23,-10.796 h 64.88 c 4.97,0 9.2,3.609 9.98,8.527 l 39.46,250.254 c 0.9,5.687 -3.48,10.816 -9.23,10.816 m -95.32,-138.304 c -5.67,-35.895 -35.09,-62.329 -72.85,-62.329 -7.43,0 -14.26,1.012 -20.37,2.989 v -0.016 c -27.99,9.004 -43.95,35.879 -39.36,65.027 5.67,35.895 35.19,62.329 72.93,62.329 7.45,0 14.26,-1.012 20.38,-2.989 v 0.016 c 27.98,-9 43.86,-35.879 39.27,-65.027"
         style="fill:#ffffff;fill-opacity:1;fill-rule:nonzero;stroke:none"
         id="path36" />
      <path
         d="m 1562.17,388.922 -78.19,-132.016 -39.69,131.035 c -1.29,4.266 -5.23,7.172 -9.67,7.172 h -70.58 c -5.13,0 -8.79,-5.015 -7.21,-9.898 L 1427.94,164.5 1363.63,60.4727 c -3.12,-5.0469 0.51,-11.5664 6.45,-11.5664 h 76.01 c 4.43,0 8.53,2.3203 10.82,6.1093 l 198.62,328.5974 c 3.06,5.047 -0.59,11.5 -6.49,11.5 h -76 c -4.46,0 -8.6,-2.351 -10.87,-6.191"
         style="fill:#ffffff;fill-opacity:1;fill-rule:nonzero;stroke:none"
         id="path38" />
      <path
         d="M 2331.26,501.758 2273.63,136.32 c -0.9,-5.668 3.48,-10.816 9.23,-10.816 h 68.35 c 4.96,0 9.19,3.629 9.98,8.547 l 57.62,365.437 c 0.9,5.668 -3.48,10.801 -9.23,10.801 h -68.34 c -4.97,0 -9.22,-3.613 -9.98,-8.531"
         style="fill:#ffffff;fill-opacity:1;fill-rule:nonzero;stroke:none"
         id="path40" />
      <path
         d="m 179.828,496.688 c 1.324,8.367 8.531,14.527 17.008,14.527 H 346.66 c 27.219,-0.051 53.231,-1.879 73.391,-12.289 0.262,75.941 -67.266,132.078 -145.606,131.687 H 93.2031 c -8.3633,-0.375 -16.0937,-6.586 -17.4648,-15.8 L 0.304688,137.555 C -1.625,127.801 5.90625,119.52 15.0078,119.52 H 120.16 l 59.668,377.168"
         style="fill:#ffffff;fill-opacity:1;fill-rule:nonzero;stroke:none"
         id="path42" />
      <path
         d="m 185.254,319.953 22.629,143.207 c 1.242,7.598 5.488,15.18 15.359,15.18 h 126.395 c 24.031,-0.215 49.371,-2.387 68.082,-12.192 -0.102,-5.406 -0.574,-14.132 -1.442,-19.671 C 404.859,373.676 342.363,319.953 268.711,319.953 h -83.457"
         style="fill:#ffffff;fill-opacity:1;fill-rule:nonzero;stroke:none"
         id="path44" />
      <path
         d="m 448.523,448.91 c -0.277,-6.484 -0.656,-12.316 -1.632,-18.594 C 433.965,347.906 362.238,287.078 278.863,287.078 H 196.16 c -9.215,0.02 -17.09,-6.715 -18.527,-15.832 L 137.406,17.6133 C 135.938,8.36328 143.094,0 152.457,0 l 88.586,0.015625 c 9.543,0 16.941,6.976565 18.461,15.488275 L 281.43,153.008 c 1.324,8.363 8.547,14.543 17.008,14.543 h 52.691 c 83.359,0 155.101,60.828 168.023,143.234 9.168,58.512 -20.273,111.723 -70.629,138.125"
         style="fill:#ffffff;fill-opacity:1;fill-rule:nonzero;stroke:none"
         id="path46" />
      <path
         d="m 179.828,496.688 c 1.324,8.367 8.531,14.527 17.008,14.527 H 346.66 c 27.219,-0.051 53.231,-1.879 73.391,-12.289 0.262,75.941 -67.266,132.078 -145.606,131.687 H 93.2031 c -8.3633,-0.375 -16.0937,-6.586 -17.4648,-15.8 L 0.304688,137.555 C -1.625,127.801 5.90625,119.52 15.0078,119.52 H 120.16 l 59.668,377.168"
         style="fill:#ffffff;fill-opacity:1;fill-rule:nonzero;stroke:none"
         id="path48" />
    </g>
  </g>
</svg>
